<svg version="1.1" id="Layer_1" xmlns="http://www.w3.org/2000/svg" xmlns:xlink="http://www.w3.org/1999/xlink" x="0px" y="0px"
	 width="100%" viewBox="0 0 1278 1280" enable-background="new 0 0 1278 1280" xml:space="preserve">
<path fill="#8D3D5B" opacity="1.000000" stroke="none" 
	d="
M1279.000000,320.000000 
	C1279.000000,457.689972 1279.000000,595.379944 1278.549072,733.528076 
	C852.398743,733.990845 426.699371,733.995422 1.000000,734.000000 
	C1.000000,649.643311 1.000000,565.286682 1.428837,480.511963 
	C2.225608,478.748016 2.903839,477.404999 2.916425,476.055786 
	C3.304348,434.470428 3.584623,392.884064 3.995870,351.298981 
	C4.077704,343.023956 4.536653,334.749023 4.971107,326.481903 
	C5.916993,308.482819 6.877586,290.483704 8.004527,272.495361 
	C8.420170,265.860870 8.919758,259.182861 10.121578,252.661179 
	C11.161237,247.019470 13.270588,241.576996 14.847054,236.029404 
	C15.044116,235.335938 14.873973,234.538116 14.873973,233.274261 
	C14.190968,234.402679 13.805302,235.039841 13.419637,235.677017 
	C13.017368,235.337753 12.615100,234.998505 12.212832,234.659241 
	C13.458914,233.310287 15.374805,232.150970 15.820886,230.575500 
	C16.987932,226.453705 17.509947,222.149536 18.296209,217.919388 
	C18.435661,217.169128 18.496315,216.377670 18.787035,215.686722 
	C19.978271,212.855576 22.701376,210.417801 21.241213,206.999283 
	C21.675928,206.985611 21.825457,206.838150 22.204224,206.943375 
	C23.191641,204.301498 23.639452,201.277481 24.780182,198.542496 
	C26.524666,194.359940 28.772980,190.388672 30.672510,186.265549 
	C30.748259,186.101135 29.439129,185.298706 29.291145,185.186096 
	C31.553200,181.065308 33.710026,177.313812 35.687138,173.469879 
	C36.932186,171.049240 37.908131,168.490219 39.109688,166.203217 
	C39.381908,166.299469 39.549232,166.185760 39.716560,166.072052 
	C39.466103,166.065399 39.215652,166.058731 39.147690,165.735031 
	C40.362087,163.261917 41.248474,161.018951 42.468761,158.975342 
	C43.583027,157.109299 45.154819,155.522049 46.350624,153.697632 
	C47.789120,151.502945 49.686089,149.338516 50.259995,146.896683 
	C52.181503,138.721191 57.998238,133.209641 63.034756,127.272980 
	C63.239922,127.174126 63.350788,126.870712 63.338318,126.253021 
	C64.527130,124.112801 65.839279,122.286850 67.112953,120.770988 
	C67.492996,121.023193 67.911522,120.965309 68.330040,120.907417 
	C67.923294,120.762405 67.516548,120.617401 67.396591,120.165817 
	C69.263756,117.939964 70.844124,116.020676 72.434708,114.393372 
	C72.422424,114.829666 72.367355,114.979805 72.391685,115.115730 
	C72.403160,115.179840 72.622375,115.281914 72.653198,115.255737 
	C72.954613,114.999901 73.236092,114.720589 73.523247,114.447952 
	C73.153259,114.343109 72.783264,114.238266 72.671570,113.831741 
	C74.031441,112.088043 75.133018,110.646027 76.294662,109.482445 
	C76.476921,109.942856 76.599106,110.124832 76.721283,110.306808 
	C76.904396,110.095146 77.087502,109.883492 77.270615,109.671844 
	C76.912254,109.527550 76.553902,109.383255 76.431290,108.987076 
	C77.942093,107.132515 79.028236,105.318657 80.532974,103.972786 
	C83.344917,101.457741 86.671509,99.479378 89.289734,96.795555 
	C93.181671,92.806107 96.644165,88.397697 100.282608,84.470551 
	C100.518639,84.917130 100.761497,85.060745 101.004364,85.204361 
	C101.130798,84.952652 101.257233,84.700928 101.383667,84.449203 
	C100.990364,84.384300 100.597061,84.319405 100.522179,83.957870 
	C101.661003,82.844170 102.481407,82.027100 103.268990,81.514519 
	C103.496452,81.954498 103.796646,82.238571 104.005478,82.182487 
	C104.202728,82.129501 104.303932,81.718925 104.447380,81.465645 
	C104.056488,81.390511 103.665604,81.315376 103.566559,80.969223 
	C106.675049,77.843651 111.851410,77.653908 112.878334,72.688934 
	C112.954712,72.319664 114.284897,72.209732 114.886749,72.183990 
	C115.002640,72.488716 115.263977,72.588684 115.525314,72.688652 
	C115.348785,72.459831 115.172264,72.231010 115.020210,71.675529 
	C118.239655,69.010330 121.434639,66.671776 124.675781,64.344086 
	C124.721947,64.354935 124.813805,64.331322 124.911110,64.539825 
	C125.255508,64.624992 125.502602,64.501648 125.749695,64.378311 
	C125.669487,64.243683 125.589279,64.109055 125.870422,63.894241 
	C126.671341,63.232006 127.110909,62.649963 127.846970,62.102898 
	C129.784393,60.744091 131.425323,59.350304 132.912460,58.153824 
	C133.019470,58.454849 133.280289,58.558571 133.541092,58.662292 
	C133.357239,58.443989 133.173386,58.225689 133.069870,57.640331 
	C134.503281,56.354797 135.856369,55.436317 137.577789,54.655670 
	C138.402557,54.742893 138.858978,54.692287 139.315384,54.641682 
	C139.306396,54.528484 139.297409,54.415291 139.288422,54.302094 
	C138.595245,54.360184 137.902084,54.418274 137.508209,54.173607 
	C139.413330,53.221771 141.180023,52.812168 142.587021,51.867069 
	C144.659363,50.475056 146.475311,48.701328 148.652985,47.303642 
	C149.002243,47.408134 149.193985,47.280834 149.177200,47.193768 
	C149.133102,46.965126 148.998154,46.754013 149.339905,46.539085 
	C153.341904,44.703415 156.865906,42.787067 160.472580,41.041546 
	C168.452591,37.179474 176.410400,33.261303 184.495850,29.630026 
	C193.454010,25.606808 202.362671,21.346895 211.630280,18.176195 
	C220.198608,15.244736 229.214493,13.622965 238.030624,11.413773 
	C245.196777,9.618038 252.278351,7.305011 259.544647,6.137171 
	C267.481323,4.861587 275.577179,4.459957 283.622192,4.004968 
	C293.044403,3.472090 302.489532,3.350753 311.916077,2.878569 
	C312.972748,2.825638 313.973389,1.653252 315.000000,1.000000 
	C524.690002,1.000000 734.379944,1.000000 944.458862,1.430008 
	C946.025818,2.227025 947.192444,2.870131 948.383728,2.919579 
	C965.904358,3.646809 983.488464,3.618877 1000.932983,5.170125 
	C1015.609985,6.475270 1030.179443,9.308201 1044.691650,12.025159 
	C1052.840454,13.550760 1060.911621,15.811065 1068.776611,18.457220 
	C1080.717651,22.474688 1092.985596,25.530617 1104.183228,31.775225 
	C1112.823730,36.593765 1122.057129,40.288307 1130.608643,45.426701 
	C1134.955688,48.038658 1139.480347,50.218918 1143.311279,53.655334 
	C1144.301758,54.543812 1146.400024,54.158173 1147.462402,55.012909 
	C1150.569336,57.512695 1153.219482,60.599083 1156.407471,62.973835 
	C1159.770874,65.479294 1163.556885,67.415199 1167.135376,69.636871 
	C1167.690796,69.981812 1168.166138,70.486420 1168.606201,70.981361 
	C1171.498169,74.232758 1174.150146,77.735954 1177.307129,80.702850 
	C1180.875366,84.056160 1185.126953,86.691185 1188.626831,90.104630 
	C1190.835327,92.258621 1193.166260,94.113663 1194.190552,97.913231 
	C1195.107300,101.313103 1200.119141,103.517136 1203.065674,106.503914 
	C1204.347290,107.802979 1204.834351,109.850136 1205.954224,111.355042 
	C1206.923462,112.657471 1208.392334,113.578415 1209.436401,114.837097 
	C1211.291016,117.073105 1213.136719,119.341843 1214.726562,121.767120 
	C1218.236572,127.121918 1221.585327,132.582581 1224.788208,137.877319 
	C1224.500366,138.024078 1224.424316,138.293518 1224.348267,138.562958 
	C1224.565552,138.375305 1224.782715,138.187637 1225.338867,138.051025 
	C1229.056030,143.595139 1232.531250,149.032089 1235.766479,154.608109 
	C1237.117554,156.936523 1237.959351,159.560455 1238.830078,161.901581 
	C1238.530396,162.016830 1238.433594,162.280518 1238.336670,162.544189 
	C1238.556274,162.360748 1238.775757,162.177322 1239.370972,162.088287 
	C1241.713135,166.286713 1241.292847,171.249069 1245.891968,174.550247 
	C1247.895386,175.988327 1245.901855,181.417130 1250.061401,183.092163 
	C1248.321777,186.319550 1252.363647,186.818726 1252.910889,189.141281 
	C1254.280884,194.955551 1256.143311,200.654297 1257.841919,206.389435 
	C1257.961304,206.792679 1258.304077,207.174774 1258.634399,207.461411 
	C1259.373901,208.103287 1260.171021,208.678757 1260.944702,209.281265 
	C1260.331665,209.545334 1259.718628,209.809402 1259.105591,210.073456 
	C1259.709961,211.048721 1260.307251,212.028503 1260.920898,212.997971 
	C1261.556641,214.002747 1262.420532,214.933014 1262.753296,216.027023 
	C1262.894775,216.492569 1261.436401,217.416428 1261.561157,217.919632 
	C1262.628906,222.224045 1263.927734,226.470337 1265.088501,230.752716 
	C1266.122192,234.566711 1267.066772,238.404861 1268.056274,242.230911 
	C1268.123413,242.490387 1268.236450,242.737991 1268.345581,243.039505 
	C1268.799805,242.502869 1269.226196,241.999161 1269.852661,241.259064 
	C1270.333984,243.556900 1270.741943,245.504471 1271.149902,247.452057 
	C1270.930908,247.511063 1270.711914,247.570068 1270.492920,247.629059 
	C1270.122681,246.993866 1269.752441,246.358673 1268.614624,244.406784 
	C1269.311157,248.276627 1269.748901,250.708359 1270.223755,253.346176 
	C1270.791260,252.550323 1271.189819,251.991379 1271.943604,250.934311 
	C1272.408203,253.779449 1272.768555,255.985916 1273.128906,258.192413 
	C1272.877808,258.238678 1272.626709,258.284973 1272.375610,258.331238 
	C1272.075195,257.468628 1271.774658,256.606018 1271.212158,254.990906 
	C1271.122192,256.429047 1270.995850,257.061340 1271.056885,257.674988 
	C1273.040527,277.593384 1275.019409,297.512329 1277.112061,317.419342 
	C1277.208374,318.335602 1278.346924,319.142303 1279.000000,320.000000 
M880.003052,576.350464 
	C879.605164,570.562561 879.331238,564.762878 878.783875,558.989197 
	C877.597229,546.473511 876.189148,533.978699 875.024414,521.461182 
	C873.873779,509.095917 873.069092,496.697235 871.824707,484.342224 
	C870.399597,470.193115 868.560974,456.085785 867.122070,441.937897 
	C866.773071,438.506348 868.507446,435.978912 872.087524,434.809540 
	C886.435486,430.123138 899.568176,423.087646 911.727234,414.159302 
	C922.184143,406.480774 932.560974,398.724304 940.050842,387.878265 
	C956.072693,364.677155 966.325684,339.821747 964.150208,310.747925 
	C962.731079,291.782776 957.736572,274.232178 947.697144,258.137573 
	C930.498230,230.565399 904.404480,213.936218 875.631165,201.247711 
	C857.969849,193.459442 838.726257,191.716949 819.568176,192.213013 
	C811.286072,192.427460 807.040466,189.502747 803.450806,182.264343 
	C787.883911,150.874664 763.815796,127.612640 732.882446,111.525444 
	C711.167297,100.232269 688.054688,93.843292 663.508606,91.759666 
	C645.741943,90.251518 628.402771,91.843208 611.149658,95.238892 
	C594.267273,98.561607 578.390747,104.841125 563.341980,113.275589 
	C542.912537,124.725800 525.141296,139.412781 511.196625,158.133301 
	C503.705231,168.190384 498.076843,179.649384 491.790405,190.580811 
	C490.030243,193.641571 488.576050,195.168747 484.431396,194.253616 
	C475.727539,192.331833 466.853180,190.693802 457.974915,190.153000 
	C439.918640,189.053131 422.221039,191.679718 405.050842,197.490982 
	C379.669556,206.081299 358.439606,220.688156 341.865356,241.777756 
	C329.882568,257.025024 321.366852,274.209167 317.336243,293.115936 
	C313.101074,312.982269 313.828735,332.980560 319.349640,352.719147 
	C324.588837,371.450623 333.426758,388.272675 346.348114,402.704285 
	C361.523651,419.653625 379.415070,432.944611 401.298065,440.206085 
	C404.684082,441.329681 405.461121,443.649963 404.853119,446.839752 
	C402.033478,461.632294 399.179474,476.418549 396.429871,491.224121 
	C392.924255,510.100555 389.142487,528.935730 386.143982,547.893677 
	C382.371613,571.744263 379.302643,595.705627 375.866608,619.610046 
	C374.269287,630.722473 372.704041,635.377014 387.546021,639.215271 
	C409.921387,645.001770 432.556885,648.746460 455.494141,650.972229 
	C467.523895,652.139526 479.580658,653.025757 491.615967,654.139221 
	C508.586395,655.709290 525.532593,657.567505 542.519043,658.930542 
	C554.911316,659.925049 567.346130,660.463867 579.772034,660.949097 
	C600.018677,661.739807 620.271790,662.761475 640.525635,662.846741 
	C655.941345,662.911682 671.363647,661.698914 686.781006,661.010315 
	C701.034546,660.373840 715.289917,659.759521 729.536438,658.987732 
	C746.252930,658.082092 763.008789,657.509521 779.659546,655.888489 
	C797.916809,654.111206 816.121582,651.616699 834.259216,648.845276 
	C849.053772,646.584717 863.589600,643.092041 876.841309,635.611694 
	C882.552551,632.387817 884.529846,629.176636 883.959839,623.788330 
	C883.507141,619.510193 883.360046,615.200684 882.990417,610.912598 
	C882.023682,599.698425 881.009277,588.488403 880.003052,576.350464 
z"/>
<path fill="#FFEED3" opacity="1.000000" stroke="none" 
	d="
M1.000008,944.000000 
	C1.000000,874.977356 1.000000,805.954773 1.239708,736.378235 
	C1.645656,735.860840 1.811896,735.897339 2.270228,736.236938 
	C4.868594,736.692505 7.174860,736.978577 9.481139,736.978699 
	C432.654083,736.999146 855.827026,736.999207 1279.000000,737.000000 
	C1279.000000,829.022644 1279.000000,921.045227 1278.628540,1013.221802 
	C1277.851807,1014.055298 1277.165405,1014.703186 1277.084961,1015.419128 
	C1276.338745,1022.065247 1275.692261,1028.722534 1275.026489,1035.377563 
	C1274.685791,1038.784180 1274.185913,1042.187622 1274.087891,1045.601929 
	C1274.001953,1048.596069 1274.376221,1051.603394 1274.547119,1054.604980 
	C1274.190552,1054.631226 1273.834106,1054.657471 1273.477661,1054.683716 
	C1273.125854,1053.915649 1272.774170,1053.147583 1272.946655,1053.524292 
	C1270.470825,1062.307739 1267.790405,1071.817383 1265.109985,1081.327026 
	C1265.302368,1081.500000 1265.494751,1081.673096 1265.687134,1081.846191 
	C1265.980591,1081.260376 1266.274170,1080.674683 1266.567627,1080.088989 
	C1266.818359,1080.249756 1267.069092,1080.410645 1267.319824,1080.571411 
	C1266.630249,1081.828857 1265.940796,1083.086304 1265.251221,1084.343750 
	C1264.937012,1084.093872 1264.622681,1083.843994 1264.308472,1083.594116 
	C1264.308472,1085.988647 1264.308472,1088.383179 1264.308472,1091.957153 
	C1263.157959,1090.349243 1262.805786,1089.857056 1262.453613,1089.364868 
	C1262.027710,1091.359009 1261.601685,1093.353149 1261.205444,1095.207886 
	C1260.495605,1096.182495 1259.342651,1097.168091 1258.990479,1098.385498 
	C1258.427612,1100.331543 1258.735718,1102.552368 1258.064209,1104.439331 
	C1256.948608,1107.575439 1255.484619,1110.611084 1253.926147,1113.561523 
	C1249.690430,1121.579224 1245.752686,1129.799561 1240.904541,1137.436523 
	C1235.309692,1146.250244 1228.867798,1154.526367 1222.423584,1163.025757 
	C1217.809448,1163.938721 1214.264893,1168.383179 1214.840332,1171.233032 
	C1212.842651,1172.745361 1210.935181,1173.903931 1209.372314,1175.418335 
	C1198.202759,1186.241211 1187.124512,1197.158203 1175.968262,1207.994995 
	C1172.750732,1211.120483 1169.373535,1214.081299 1166.048462,1217.075195 
	C1166.027466,1217.032593 1166.113647,1217.072266 1165.739258,1217.053467 
	C1160.444946,1219.995605 1155.517456,1222.943848 1150.606567,1225.919678 
	C1130.016602,1238.396484 1108.717651,1249.333130 1085.473511,1256.086548 
	C1081.982910,1257.100708 1078.506592,1258.208374 1075.125977,1259.533813 
	C1073.940063,1259.998779 1073.061401,1261.247314 1072.022217,1262.556519 
	C1069.601440,1263.532349 1067.181519,1264.018188 1064.803711,1264.660767 
	C1058.323486,1266.412231 1051.952637,1268.757446 1045.370605,1269.899536 
	C1034.994385,1271.699829 1024.494019,1272.822632 1014.022278,1274.024292 
	C1001.410034,1275.471436 988.792358,1276.951294 976.139954,1277.943481 
	C966.613892,1278.690552 957.027100,1278.643921 947.474854,1279.107056 
	C946.621277,1279.148438 945.823608,1280.341675 945.000000,1281.000000 
	C732.310669,1281.000000 519.621399,1281.000000 306.769897,1280.622314 
	C305.922028,1279.843628 305.252930,1279.125122 304.548157,1279.088013 
	C288.917450,1278.271240 273.304260,1277.319336 257.945801,1274.020386 
	C248.367218,1271.963013 238.507553,1271.735107 229.094620,1268.239990 
	C222.555130,1265.811890 215.260208,1265.463013 208.347626,1263.976562 
	C204.753738,1263.203735 200.343323,1262.964722 197.929825,1260.728027 
	C194.281128,1257.346558 190.589188,1256.018066 185.933731,1255.957397 
	C184.739838,1255.941772 182.814972,1255.440918 182.492813,1254.648193 
	C180.873459,1250.663086 176.711807,1251.596069 174.150177,1249.542725 
	C173.645432,1244.947510 170.497025,1245.622803 167.149597,1245.889404 
	C166.608871,1245.662231 166.480347,1245.419067 166.598206,1245.171631 
	C166.658081,1245.161255 166.471558,1245.155273 166.405090,1245.366577 
	C166.525177,1245.583862 166.112350,1245.859863 166.076141,1245.456421 
	C163.067184,1243.185181 160.198288,1241.121704 157.105194,1239.480835 
	C134.799866,1227.649414 113.194946,1214.848999 94.215805,1197.910034 
	C78.406868,1183.800537 63.918278,1168.636230 52.132660,1150.949951 
	C51.318329,1149.727905 48.719543,1149.695068 46.672531,1148.968018 
	C46.228794,1148.235840 46.063114,1147.644775 46.185547,1146.929932 
	C49.658306,1145.481079 47.792274,1143.912598 46.801289,1142.202881 
	C36.751450,1124.864258 28.034760,1106.936035 22.586098,1087.546143 
	C22.215633,1086.227783 20.796082,1085.204102 19.520666,1083.873169 
	C18.697355,1081.618164 18.217817,1079.533447 17.637770,1077.011719 
	C17.092253,1078.296021 16.793060,1079.000366 16.493870,1079.704712 
	C16.063602,1078.254028 16.719759,1076.989990 16.596115,1075.807617 
	C16.323437,1073.199951 16.312057,1068.873047 15.024294,1068.394287 
	C11.727518,1067.168823 13.264189,1065.610596 13.529134,1063.857056 
	C13.794517,1062.100708 13.888112,1060.318481 14.056994,1058.547607 
	C13.844811,1058.514648 13.632629,1058.481689 13.420446,1058.448730 
	C13.155900,1059.546875 12.891354,1060.645142 12.626806,1061.743286 
	C11.960368,1056.897827 12.440352,1052.072266 11.864324,1047.376099 
	C10.502605,1036.274414 8.164356,1025.280029 7.093460,1014.158264 
	C5.630283,998.962341 4.992942,983.687378 3.945701,968.450134 
	C3.864087,967.262634 3.343802,966.105286 3.060205,964.967163 
	C3.093011,965.000366 3.053233,965.084778 3.024531,964.611572 
	C2.989028,958.394958 3.074950,952.648499 2.886828,946.911133 
	C2.854370,945.921143 1.658492,944.969360 1.000008,944.000000 
M461.137787,1189.329468 
	C473.406311,1201.782959 488.870972,1202.594238 502.236145,1191.401367 
	C530.978088,1167.331299 559.687683,1143.222656 588.416809,1119.137085 
	C603.341858,1106.624390 618.280151,1094.127563 633.437439,1081.435181 
	C635.750732,1083.152344 637.915771,1084.663452 639.977661,1086.304321 
	C695.123291,1130.186890 750.231384,1174.116577 805.412781,1217.953979 
	C820.421631,1229.877319 843.182312,1222.174683 848.417236,1203.589844 
	C851.852600,1191.393921 847.161743,1179.150269 836.101379,1171.957275 
	C797.286133,1146.714233 758.440063,1121.518677 719.600647,1096.312866 
	C700.204163,1083.725098 680.796631,1071.154297 660.112061,1057.744751 
	C661.449158,1057.151245 662.362061,1056.961182 662.994507,1056.434448 
	C691.672913,1032.548706 720.265503,1008.558899 749.096191,984.858704 
	C751.483093,982.896606 755.488403,982.023804 758.697144,982.120911 
	C765.724304,982.333557 765.471680,982.697693 766.176453,975.339661 
	C766.425171,972.743347 767.544006,969.645264 769.349731,967.894531 
	C774.455261,962.944397 780.122070,958.573303 785.673340,953.884888 
	C796.107056,960.836914 806.226196,967.557495 816.322021,974.312866 
	C825.062439,980.161194 826.269653,980.063599 834.083923,973.367371 
	C863.058289,948.538513 892.065674,923.748169 921.053040,898.934448 
	C935.465149,886.597412 949.860596,874.240906 964.531982,861.663147 
	C961.878723,858.162964 959.417847,854.916565 956.848389,851.526917 
	C916.360291,882.117126 876.260986,912.413696 835.819946,942.968384 
	C834.040955,940.523499 832.528259,938.444580 830.835938,936.118774 
	C870.159302,904.322815 909.216980,872.741699 948.402527,841.057251 
	C946.147156,838.139709 944.242920,835.676331 942.146790,832.964783 
	C901.442566,863.022400 861.008484,892.880432 820.246216,922.980835 
	C818.097839,920.104614 816.062805,917.380066 813.929260,914.523682 
	C854.265747,883.515991 894.234558,852.791016 934.330872,821.967957 
	C931.863464,818.961304 929.765747,816.405151 927.480713,813.620728 
	C886.316101,842.891296 845.395386,871.988403 804.284790,901.220581 
	C802.309631,898.423096 800.620911,896.031189 798.830017,893.494568 
	C838.825378,862.296692 878.464966,831.376282 918.459229,800.179260 
	C916.042725,797.288879 913.871094,794.691345 911.625427,792.005371 
	C908.646423,793.875916 906.069214,795.405945 903.581482,797.069763 
	C868.137573,820.773804 832.712097,844.505493 797.266724,868.207458 
	C787.714050,874.595276 778.034973,880.796631 768.554321,887.288513 
	C761.669739,892.002747 760.422119,896.189453 762.936707,904.049622 
	C763.443665,905.634094 764.017700,907.197144 764.564148,908.768921 
	C768.098572,918.936157 771.633972,929.102966 775.194946,939.344604 
	C769.628174,943.108337 764.208984,946.404907 759.219788,950.258179 
	C755.000061,953.517334 751.260254,955.108154 746.418945,951.377686 
	C743.479614,949.112732 740.803955,949.855591 740.971252,954.139709 
	C741.265381,961.670715 736.968811,966.023132 731.224731,969.771362 
	C719.093933,977.687195 706.995850,985.658752 695.034790,993.827759 
	C675.915405,1006.885681 656.921936,1020.127991 637.868042,1033.281860 
	C630.801636,1038.160278 628.412170,1038.159180 621.156738,1033.384644 
	C618.791382,1031.828003 616.427856,1030.268188 614.046265,1028.736694 
	C592.767090,1015.053040 571.506470,1001.340210 550.187683,987.718567 
	C544.254517,983.927551 540.329773,978.927673 539.788635,971.803162 
	C526.787720,972.148132 526.781921,972.156677 515.643372,964.579651 
	C513.164734,962.893616 510.902954,960.810608 508.260254,959.460754 
	C503.226471,956.889587 502.431519,953.981445 504.582336,948.434753 
	C515.742798,919.653259 509.782837,894.663635 487.017731,873.606689 
	C467.689911,855.729187 445.364136,843.816833 419.394592,839.259399 
	C400.619598,835.964539 381.736389,833.955688 362.938995,839.401184 
	C343.490082,845.035339 335.256683,856.420044 337.675537,876.567078 
	C342.492554,916.689026 361.939056,948.957520 393.888336,973.009155 
	C412.418030,986.958374 434.072510,992.828186 457.616180,988.089844 
	C468.832428,985.832458 478.395050,980.155884 487.319641,973.313965 
	C491.638672,970.002930 495.362366,970.241943 499.289459,973.964905 
	C502.177643,976.703003 505.258270,979.321533 508.572754,981.509033 
	C515.516235,986.091736 522.501160,990.442017 516.740479,1001.910461 
	C527.832520,997.044556 534.851868,1001.379272 541.791077,1007.365662 
	C552.384521,1016.504761 563.381531,1025.177246 574.236633,1034.011597 
	C583.246765,1041.344482 592.299194,1048.625488 601.817749,1056.321411 
	C598.344910,1058.868286 595.367249,1061.207520 592.238220,1063.322998 
	C550.841492,1091.309814 509.389587,1119.215088 468.028564,1147.254395 
	C452.650726,1157.679321 449.937195,1173.746704 461.137787,1189.329468 
z"/>
<path fill="#000000" opacity="1.000000" stroke="none" 
	d="
M100.289429,84.167603 
	C96.644165,88.397697 93.181671,92.806107 89.289734,96.795555 
	C86.671509,99.479378 83.344917,101.457741 80.532974,103.972786 
	C79.028236,105.318657 77.942093,107.132515 76.446869,108.982437 
	C76.226692,109.229698 76.234596,109.204010 76.234596,109.204010 
	C75.133018,110.646027 74.031441,112.088043 72.681870,113.825073 
	C72.433891,114.120102 72.424484,114.101387 72.424484,114.101387 
	C70.844124,116.020676 69.263756,117.939964 67.412109,120.160362 
	C67.140823,120.461472 67.151428,120.460899 67.151428,120.460899 
	C65.839279,122.286850 64.527130,124.112801 63.202492,126.372559 
	C63.190006,126.806358 62.940456,127.068413 62.940456,127.068413 
	C57.998238,133.209641 52.181503,138.721191 50.259995,146.896683 
	C49.686089,149.338516 47.789120,151.502945 46.350624,153.697632 
	C45.154819,155.522049 43.583027,157.109299 42.468761,158.975342 
	C41.248474,161.018951 40.362087,163.261917 39.157379,165.719330 
	C38.984570,166.020660 39.004799,165.993271 39.004799,165.993271 
	C37.908131,168.490219 36.932186,171.049240 35.687138,173.469879 
	C33.710026,177.313812 31.553200,181.065308 29.291145,185.186096 
	C29.439129,185.298706 30.748259,186.101135 30.672510,186.265549 
	C28.772980,190.388672 26.524666,194.359940 24.780182,198.542496 
	C23.639452,201.277481 23.191641,204.301498 22.199127,206.825958 
	C21.822157,206.205688 21.679523,205.955505 21.536888,205.705338 
	C21.343267,206.092056 21.149647,206.478775 20.956028,206.865494 
	C22.701376,210.417801 19.978271,212.855576 18.787035,215.686722 
	C18.496315,216.377670 18.435661,217.169128 18.296209,217.919388 
	C17.509947,222.149536 16.987932,226.453705 15.820886,230.575500 
	C15.374805,232.150970 13.458914,233.310287 12.212832,234.659241 
	C12.615100,234.998505 13.017368,235.337753 13.419637,235.677017 
	C13.805302,235.039841 14.190968,234.402679 14.873973,233.274261 
	C14.873973,234.538116 15.044116,235.335938 14.847054,236.029404 
	C13.270588,241.576996 11.161237,247.019470 10.121578,252.661179 
	C8.919758,259.182861 8.420170,265.860870 8.004527,272.495361 
	C6.877586,290.483704 5.916993,308.482819 4.971107,326.481903 
	C4.536653,334.749023 4.077704,343.023956 3.995870,351.298981 
	C3.584623,392.884064 3.304348,434.470428 2.916425,476.055786 
	C2.903839,477.404999 2.225608,478.748016 1.428837,480.046936 
	C1.000000,470.979095 1.000000,461.958221 1.379588,452.257935 
	C1.843371,437.535400 1.978358,423.492188 1.964228,409.449127 
	C1.961729,406.965759 1.337253,404.483032 1.000000,402.000000 
	C1.000000,397.310760 1.000000,392.621490 1.334228,387.184448 
	C2.104678,385.972198 2.917482,385.511200 2.921780,385.042786 
	C3.016858,374.680237 3.059834,364.316498 2.957402,353.954498 
	C2.950899,353.296631 1.681753,352.651215 1.000002,352.000000 
	C1.000000,235.076996 1.000000,118.153976 1.000000,1.000000 
	C105.354111,1.000000 209.708405,1.000000 314.531342,1.000000 
	C313.973389,1.653252 312.972748,2.825638 311.916077,2.878569 
	C302.489532,3.350753 293.044403,3.472090 283.622192,4.004968 
	C275.577179,4.459957 267.481323,4.861587 259.544647,6.137171 
	C252.278351,7.305011 245.196777,9.618038 238.030624,11.413773 
	C229.214493,13.622965 220.198608,15.244736 211.630280,18.176195 
	C202.362671,21.346895 193.454010,25.606808 184.495850,29.630026 
	C176.410400,33.261303 168.452591,37.179474 160.472580,41.041546 
	C156.865906,42.787067 153.341904,44.703415 149.321228,46.579781 
	C148.718567,46.785503 148.564697,46.943134 148.400467,47.090187 
	C146.475311,48.701328 144.659363,50.475056 142.587021,51.867069 
	C141.180023,52.812168 139.413330,53.221771 137.523163,54.168991 
	C137.238831,54.467136 137.209442,54.517834 137.209442,54.517838 
	C135.856369,55.436317 134.503281,56.354797 133.088379,57.626789 
	C133.026535,57.980301 133.066254,57.956520 133.066254,57.956520 
	C131.425323,59.350304 129.784393,60.744091 127.471031,62.186119 
	C126.075607,62.933987 125.352608,63.633606 124.629616,64.333229 
	C121.434639,66.671776 118.239655,69.010330 115.027908,71.670364 
	C115.011131,71.991852 115.032204,71.979240 115.032204,71.979240 
	C114.284897,72.209732 112.954712,72.319664 112.878334,72.688934 
	C111.851410,77.653908 106.675049,77.843651 103.581070,80.962067 
	C103.303734,81.225906 103.301819,81.210037 103.301819,81.210037 
	C102.481407,82.027100 101.661003,82.844170 100.542740,83.949631 
	C100.244888,84.238022 100.289436,84.167603 100.289429,84.167603 
z"/>
<path fill="#000000" opacity="1.000000" stroke="none" 
	d="
M1239.032715,162.049988 
	C1237.959351,159.560455 1237.117554,156.936523 1235.766479,154.608109 
	C1232.531250,149.032089 1229.056030,143.595139 1225.338867,138.051025 
	C1221.585327,132.582581 1218.236572,127.121918 1214.726562,121.767120 
	C1213.136719,119.341843 1211.291016,117.073105 1209.436401,114.837097 
	C1208.392334,113.578415 1206.923462,112.657471 1205.954224,111.355042 
	C1204.834351,109.850136 1204.347290,107.802979 1203.065674,106.503914 
	C1200.119141,103.517136 1195.107300,101.313103 1194.190552,97.913231 
	C1193.166260,94.113663 1190.835327,92.258621 1188.626831,90.104630 
	C1185.126953,86.691185 1180.875366,84.056160 1177.307129,80.702850 
	C1174.150146,77.735954 1171.498169,74.232758 1168.606201,70.981361 
	C1168.166138,70.486420 1167.690796,69.981812 1167.135376,69.636871 
	C1163.556885,67.415199 1159.770874,65.479294 1156.407471,62.973835 
	C1153.219482,60.599083 1150.569336,57.512695 1147.462402,55.012909 
	C1146.400024,54.158173 1144.301758,54.543812 1143.311279,53.655334 
	C1139.480347,50.218918 1134.955688,48.038658 1130.608643,45.426701 
	C1122.057129,40.288307 1112.823730,36.593765 1104.183228,31.775225 
	C1092.985596,25.530617 1080.717651,22.474688 1068.776611,18.457220 
	C1060.911621,15.811065 1052.840454,13.550760 1044.691650,12.025159 
	C1030.179443,9.308201 1015.609985,6.475270 1000.932983,5.170125 
	C983.488464,3.618877 965.904358,3.646809 948.383728,2.919579 
	C947.192444,2.870131 946.025818,2.227025 944.923828,1.430008 
	C948.692932,1.000000 952.385803,1.000000 956.794312,1.340508 
	C964.327148,1.784695 971.144592,1.969048 977.961304,1.942304 
	C979.975403,1.934403 981.987183,1.330677 984.000000,0.999996 
	C1082.263184,1.000000 1180.526489,1.000000 1279.000000,1.000000 
	C1279.000000,107.020805 1279.000000,213.041748 1279.000000,319.531342 
	C1278.346924,319.142303 1277.208374,318.335602 1277.112061,317.419342 
	C1275.019409,297.512329 1273.040527,277.593384 1271.056885,257.674988 
	C1270.995850,257.061340 1271.122192,256.429047 1271.212158,254.990906 
	C1271.774658,256.606018 1272.075195,257.468628 1272.375610,258.331238 
	C1272.626709,258.284973 1272.877808,258.238678 1273.128906,258.192413 
	C1272.768555,255.985916 1272.408203,253.779449 1271.943604,250.934311 
	C1271.189819,251.991379 1270.791260,252.550323 1270.223755,253.346176 
	C1269.748901,250.708359 1269.311157,248.276627 1268.614624,244.406784 
	C1269.752441,246.358673 1270.122681,246.993866 1270.492920,247.629059 
	C1270.711914,247.570068 1270.930908,247.511063 1271.149902,247.452057 
	C1270.741943,245.504471 1270.333984,243.556900 1269.852661,241.259064 
	C1269.226196,241.999161 1268.799805,242.502869 1268.345581,243.039505 
	C1268.236450,242.737991 1268.123413,242.490387 1268.056274,242.230911 
	C1267.066772,238.404861 1266.122192,234.566711 1265.088501,230.752716 
	C1263.927734,226.470337 1262.628906,222.224045 1261.561157,217.919632 
	C1261.436401,217.416428 1262.894775,216.492569 1262.753296,216.027023 
	C1262.420532,214.933014 1261.556641,214.002747 1260.920898,212.997971 
	C1260.307251,212.028503 1259.709961,211.048721 1259.105591,210.073456 
	C1259.718628,209.809402 1260.331665,209.545334 1260.944702,209.281265 
	C1260.171021,208.678757 1259.373901,208.103287 1258.634399,207.461411 
	C1258.304077,207.174774 1257.961304,206.792679 1257.841919,206.389435 
	C1256.143311,200.654297 1254.280884,194.955551 1252.910889,189.141281 
	C1252.363647,186.818726 1248.321777,186.319550 1250.061401,183.092163 
	C1245.901855,181.417130 1247.895386,175.988327 1245.891968,174.550247 
	C1241.292847,171.249069 1241.713135,166.286713 1239.380493,162.101166 
	C1239.014404,162.019669 1239.032837,162.049973 1239.032715,162.049988 
z"/>
<path fill="#000000" opacity="1.000000" stroke="none" 
	d="
M45.897430,1147.053833 
	C46.063114,1147.644775 46.228794,1148.235840 46.792862,1149.295166 
	C54.168980,1158.722290 60.981571,1167.816162 68.161415,1176.609985 
	C80.273003,1191.444336 94.661385,1203.875732 110.193314,1214.964844 
	C116.146568,1219.215210 121.394463,1224.840942 129.174576,1226.013306 
	C132.117767,1232.529663 140.028336,1231.923706 144.409210,1236.573120 
	C145.708359,1237.951904 149.843506,1237.165527 150.556931,1238.503174 
	C154.044388,1245.042480 161.085464,1243.188965 166.112350,1245.859863 
	C166.112350,1245.859863 166.525177,1245.583862 166.415222,1245.399658 
	C166.305283,1245.215454 166.351807,1245.175903 166.351807,1245.175903 
	C166.480347,1245.419067 166.608871,1245.662231 167.344162,1246.194946 
	C168.334183,1250.559570 171.276779,1250.004150 174.007416,1249.832275 
	C176.711807,1251.596069 180.873459,1250.663086 182.492813,1254.648193 
	C182.814972,1255.440918 184.739838,1255.941772 185.933731,1255.957397 
	C190.589188,1256.018066 194.281128,1257.346558 197.929825,1260.728027 
	C200.343323,1262.964722 204.753738,1263.203735 208.347626,1263.976562 
	C215.260208,1265.463013 222.555130,1265.811890 229.094620,1268.239990 
	C238.507553,1271.735107 248.367218,1271.963013 257.945801,1274.020386 
	C273.304260,1277.319336 288.917450,1278.271240 304.548157,1279.088013 
	C305.252930,1279.125122 305.922028,1279.843628 306.303864,1280.622314 
	C204.406631,1281.000000 102.813263,1281.000000 1.000000,1281.000000 
	C1.000000,1180.645874 1.000000,1080.291626 1.333015,979.122620 
	C1.926583,978.493103 2.187136,978.678284 2.447705,978.863403 
	C2.539552,978.729919 2.708565,978.598328 2.712022,978.462585 
	C2.826928,973.953308 2.926007,969.443604 3.027403,964.933960 
	C3.343802,966.105286 3.864087,967.262634 3.945701,968.450134 
	C4.992942,983.687378 5.630283,998.962341 7.093460,1014.158264 
	C8.164356,1025.280029 10.502605,1036.274414 11.864324,1047.376099 
	C12.440352,1052.072266 11.960368,1056.897827 12.626806,1061.743286 
	C12.891354,1060.645142 13.155900,1059.546875 13.420446,1058.448730 
	C13.632629,1058.481689 13.844811,1058.514648 14.056994,1058.547607 
	C13.888112,1060.318481 13.794517,1062.100708 13.529134,1063.857056 
	C13.264189,1065.610596 11.727518,1067.168823 15.024294,1068.394287 
	C16.312057,1068.873047 16.323437,1073.199951 16.596115,1075.807617 
	C16.719759,1076.989990 16.063602,1078.254028 16.493870,1079.704712 
	C16.793060,1079.000366 17.092253,1078.296021 17.637770,1077.011719 
	C18.217817,1079.533447 18.697355,1081.618164 19.563274,1084.172363 
	C20.301563,1086.263550 20.653473,1087.885376 21.200422,1090.406006 
	C20.144138,1089.176392 19.727806,1088.691650 19.311474,1088.207031 
	C19.601437,1090.609863 21.253111,1092.212402 21.868137,1094.144897 
	C22.728024,1096.846802 22.358244,1099.962646 23.328838,1102.602051 
	C25.240160,1107.799561 27.711725,1112.791260 29.995850,1118.147095 
	C30.337362,1118.633057 30.634569,1118.839966 30.953382,1119.454834 
	C35.949135,1128.926392 40.923279,1137.990112 45.897430,1147.053833 
z"/>
<path fill="#000000" opacity="1.000000" stroke="none" 
	d="
M1222.793701,1163.035889 
	C1228.867798,1154.526367 1235.309692,1146.250244 1240.904541,1137.436523 
	C1245.752686,1129.799561 1249.690430,1121.579224 1253.926147,1113.561523 
	C1255.484619,1110.611084 1256.948608,1107.575439 1258.064209,1104.439331 
	C1258.735718,1102.552368 1258.427612,1100.331543 1258.990479,1098.385498 
	C1259.342651,1097.168091 1260.495605,1096.182495 1261.205444,1095.207886 
	C1261.601685,1093.353149 1262.027710,1091.359009 1262.453613,1089.364868 
	C1262.805786,1089.857056 1263.157959,1090.349243 1264.308472,1091.957153 
	C1264.308472,1088.383179 1264.308472,1085.988647 1264.308472,1083.594116 
	C1264.622681,1083.843994 1264.937012,1084.093872 1265.251221,1084.343750 
	C1265.940796,1083.086304 1266.630249,1081.828857 1267.319824,1080.571411 
	C1267.069092,1080.410645 1266.818359,1080.249756 1266.567627,1080.088989 
	C1266.274170,1080.674683 1265.980591,1081.260376 1265.687134,1081.846191 
	C1265.494751,1081.673096 1265.302368,1081.500000 1265.109985,1081.327026 
	C1267.790405,1071.817383 1270.470825,1062.307739 1272.946655,1053.524292 
	C1272.774170,1053.147583 1273.125854,1053.915649 1273.477661,1054.683716 
	C1273.834106,1054.657471 1274.190552,1054.631226 1274.547119,1054.604980 
	C1274.376221,1051.603394 1274.001953,1048.596069 1274.087891,1045.601929 
	C1274.185913,1042.187622 1274.685791,1038.784180 1275.026489,1035.377563 
	C1275.692261,1028.722534 1276.338745,1022.065247 1277.084961,1015.419128 
	C1277.165405,1014.703186 1277.851807,1014.055298 1278.628540,1013.687866 
	C1279.000000,1102.935181 1279.000000,1191.870361 1279.000000,1281.000000 
	C1167.979126,1281.000000 1056.958252,1281.000000 945.468628,1281.000000 
	C945.823608,1280.341675 946.621277,1279.148438 947.474854,1279.107056 
	C957.027100,1278.643921 966.613892,1278.690552 976.139954,1277.943481 
	C988.792358,1276.951294 1001.410034,1275.471436 1014.022278,1274.024292 
	C1024.494019,1272.822632 1034.994385,1271.699829 1045.370605,1269.899536 
	C1051.952637,1268.757446 1058.323486,1266.412231 1064.803711,1264.660767 
	C1067.181519,1264.018188 1069.601440,1263.532349 1072.456299,1262.495605 
	C1076.443237,1261.012451 1079.985352,1260.040161 1083.506836,1258.997803 
	C1089.624390,1257.187378 1095.851318,1255.655884 1101.803223,1253.402344 
	C1107.206909,1251.356323 1112.283691,1248.457642 1117.543823,1246.019531 
	C1125.474609,1242.343262 1133.493286,1238.851929 1141.366089,1235.056885 
	C1144.991943,1233.309204 1148.583618,1231.325928 1151.794434,1228.920288 
	C1156.746460,1225.209839 1161.357788,1221.044556 1166.113647,1217.072266 
	C1166.113647,1217.072266 1166.027466,1217.032593 1166.421997,1217.023071 
	C1169.513062,1215.346191 1172.388306,1213.906860 1174.869141,1211.963989 
	C1180.133057,1207.841675 1185.496094,1203.768677 1190.265259,1199.109253 
	C1198.047363,1191.506348 1205.506226,1183.559937 1212.862549,1175.539429 
	C1216.451172,1171.626709 1219.500488,1167.219360 1222.793701,1163.035889 
z"/>
<path fill="#7F284C" opacity="1.000000" stroke="none" 
	d="
M1.978135,735.933716 
	C1.811896,735.897339 1.645656,735.860840 1.239708,735.912170 
	C1.000000,735.555542 1.000000,735.111145 1.000000,734.333374 
	C426.699371,733.995422 852.398743,733.990845 1278.549072,733.993164 
	C1279.000000,734.000000 1279.000000,734.500000 1278.614624,734.904419 
	C1275.915161,735.443298 1273.600952,735.695374 1271.286865,735.695496 
	C850.343872,735.712769 429.400818,735.711731 8.457801,735.721130 
	C6.297911,735.721191 4.138023,735.859802 1.978135,735.933716 
z"/>
<path fill="#FFFFE7" opacity="1.000000" stroke="none" 
	d="
M2.270228,736.236877 
	C4.138023,735.859802 6.297911,735.721191 8.457801,735.721130 
	C429.400818,735.711731 850.343872,735.712769 1271.286865,735.695496 
	C1273.600952,735.695374 1275.915161,735.443298 1278.614624,735.154419 
	C1279.000000,735.444458 1279.000000,735.888916 1279.000000,736.666687 
	C855.827026,736.999207 432.654083,736.999146 9.481139,736.978699 
	C7.174860,736.978577 4.868594,736.692505 2.270228,736.236877 
z"/>
<path fill="#AC5A6C" opacity="1.000000" stroke="none" 
	d="
M1.000002,352.468658 
	C1.681753,352.651215 2.950899,353.296631 2.957402,353.954498 
	C3.059834,364.316498 3.016858,374.680237 2.921780,385.042786 
	C2.917482,385.511200 2.104678,385.972198 1.334228,386.718323 
	C1.000000,375.645782 1.000000,364.291534 1.000002,352.468658 
z"/>
<path fill="#8A5458" opacity="1.000000" stroke="none" 
	d="
M1.000000,402.468658 
	C1.337253,404.483032 1.961729,406.965759 1.964228,409.449127 
	C1.978358,423.492188 1.843371,437.535400 1.379588,451.789307 
	C1.000000,435.645782 1.000000,419.291534 1.000000,402.468658 
z"/>
<path fill="#FFF9E2" opacity="1.000000" stroke="none" 
	d="
M3.060209,964.967163 
	C2.926007,969.443604 2.826928,973.953308 2.712022,978.462585 
	C2.708565,978.598328 2.539552,978.729919 2.447705,978.863403 
	C2.187136,978.678284 1.926583,978.493103 1.333015,978.653931 
	C1.000000,968.312439 1.000000,957.624878 1.412963,946.628174 
	C1.876820,948.790833 1.826948,951.269714 2.001987,953.732666 
	C2.271337,957.522461 2.695030,961.301270 3.053235,965.084778 
	C3.053233,965.084778 3.093011,965.000366 3.060209,964.967163 
z"/>
<path fill="#943F59" opacity="1.000000" stroke="none" 
	d="
M983.531372,0.999996 
	C981.987183,1.330677 979.975403,1.934403 977.961304,1.942304 
	C971.144592,1.969048 964.327148,1.784695 957.255005,1.340508 
	C965.687561,1.000000 974.375183,1.000000 983.531372,0.999996 
z"/>
<path fill="#000000" opacity="1.000000" stroke="none" 
	d="
M3.024533,964.611572 
	C2.695030,961.301270 2.271337,957.522461 2.001987,953.732666 
	C1.826948,951.269714 1.876820,948.790833 1.412963,946.159546 
	C1.000000,945.555542 1.000000,945.111084 1.000008,944.333313 
	C1.658492,944.969360 2.854370,945.921143 2.886828,946.911133 
	C3.074950,952.648499 2.989028,958.394958 3.024533,964.611572 
z"/>
<path fill="#724254" opacity="1.000000" stroke="none" 
	d="
M880.008484,576.813599 
	C881.009277,588.488403 882.023682,599.698425 882.990417,610.912598 
	C883.360046,615.200684 883.507141,619.510193 883.959839,623.788330 
	C884.529846,629.176636 882.552551,632.387817 876.841309,635.611694 
	C863.589600,643.092041 849.053772,646.584717 834.259216,648.845276 
	C816.121582,651.616699 797.916809,654.111206 779.659546,655.888489 
	C763.008789,657.509521 746.252930,658.082092 729.536438,658.987732 
	C715.289917,659.759521 701.034546,660.373840 686.781006,661.010315 
	C671.363647,661.698914 655.941345,662.911682 640.525635,662.846741 
	C620.271790,662.761475 600.018677,661.739807 579.772034,660.949097 
	C567.346130,660.463867 554.911316,659.925049 542.519043,658.930542 
	C525.532593,657.567505 508.586395,655.709290 491.615967,654.139221 
	C479.580658,653.025757 467.523895,652.139526 455.494141,650.972229 
	C432.556885,648.746460 409.921387,645.001770 387.546021,639.215271 
	C372.704041,635.377014 374.269287,630.722473 375.866608,619.610046 
	C379.302643,595.705627 382.371613,571.744263 386.143982,547.893677 
	C389.142487,528.935730 392.924255,510.100555 396.429871,491.224121 
	C399.179474,476.418549 402.033478,461.632294 404.853119,446.839752 
	C405.461121,443.649963 404.684082,441.329681 401.298065,440.206085 
	C379.415070,432.944611 361.523651,419.653625 346.348114,402.704285 
	C333.426758,388.272675 324.588837,371.450623 319.349640,352.719147 
	C313.828735,332.980560 313.101074,312.982269 317.336243,293.115936 
	C321.366852,274.209167 329.882568,257.025024 341.865356,241.777756 
	C358.439606,220.688156 379.669556,206.081299 405.050842,197.490982 
	C422.221039,191.679718 439.918640,189.053131 457.974915,190.153000 
	C466.853180,190.693802 475.727539,192.331833 484.431396,194.253616 
	C488.576050,195.168747 490.030243,193.641571 491.790405,190.580811 
	C498.076843,179.649384 503.705231,168.190384 511.196625,158.133301 
	C525.141296,139.412781 542.912537,124.725800 563.341980,113.275589 
	C578.390747,104.841125 594.267273,98.561607 611.149658,95.238892 
	C628.402771,91.843208 645.741943,90.251518 663.508606,91.759666 
	C688.054688,93.843292 711.167297,100.232269 732.882446,111.525444 
	C763.815796,127.612640 787.883911,150.874664 803.450806,182.264343 
	C807.040466,189.502747 811.286072,192.427460 819.568176,192.213013 
	C838.726257,191.716949 857.969849,193.459442 875.631165,201.247711 
	C904.404480,213.936218 930.498230,230.565399 947.697144,258.137573 
	C957.736572,274.232178 962.731079,291.782776 964.150208,310.747925 
	C966.325684,339.821747 956.072693,364.677155 940.050842,387.878265 
	C932.560974,398.724304 922.184143,406.480774 911.727234,414.159302 
	C899.568176,423.087646 886.435486,430.123138 872.087524,434.809540 
	C868.507446,435.978912 866.773071,438.506348 867.122070,441.937897 
	C868.560974,456.085785 870.399597,470.193115 871.824707,484.342224 
	C873.069092,496.697235 873.873779,509.095917 875.024414,521.461182 
	C876.189148,533.978699 877.597229,546.473511 878.783875,558.989197 
	C879.331238,564.762878 879.605164,570.562561 880.008484,576.813599 
M560.711792,641.845154 
	C588.694580,642.646729 616.673096,643.867310 644.661194,644.156677 
	C692.856812,644.655090 740.929871,641.896729 788.836975,636.702698 
	C811.005615,634.299194 833.092957,631.124023 855.179504,628.029785 
	C856.874023,627.792419 859.548645,625.463074 859.604126,624.022766 
	C860.142395,610.050537 861.131104,596.001892 860.236633,582.087769 
	C858.356445,552.840515 855.442810,523.658997 852.904663,494.454773 
	C851.549194,478.858154 850.011963,463.276917 848.729370,447.674561 
	C848.336060,442.890991 846.637207,440.924927 841.464111,441.775421 
	C822.558105,444.883789 803.572510,443.059387 784.614014,442.139282 
	C783.773315,442.098480 782.954285,441.610992 782.125122,441.331604 
	C783.776306,439.635803 785.504028,438.885223 787.309387,438.482666 
	C806.299194,434.248657 825.273743,429.940063 844.306213,425.905151 
	C877.565552,418.854156 905.844971,403.819366 926.050293,375.608093 
	C940.724121,355.120087 949.141357,332.528656 945.334961,307.184143 
	C938.849854,264.004059 914.229126,234.688507 874.094971,218.086395 
	C853.765076,209.676651 832.186096,207.738419 810.601562,206.093811 
	C804.856995,205.656113 801.043274,203.639343 798.174011,198.596924 
	C787.977783,180.678574 775.618408,164.426102 760.109009,150.696777 
	C711.229309,107.427292 655.086914,95.081619 593.808228,116.434998 
	C537.783691,135.957474 503.324432,177.266525 488.104126,234.506943 
	C485.309296,245.017822 483.144196,255.696167 480.688416,266.297211 
	C478.187012,249.477951 479.370880,232.989136 483.647400,216.702194 
	C485.138672,211.022903 484.507324,210.053848 478.858124,208.836456 
	C460.175995,204.810516 441.514526,204.913910 422.859222,209.063477 
	C376.536194,219.367310 340.426392,256.634583 333.128723,301.705322 
	C324.486511,355.080322 357.424194,409.304230 409.544373,425.605591 
	C427.404388,431.191620 446.140289,433.977295 464.476532,438.040222 
	C471.536682,439.604614 478.598175,441.163025 485.659058,442.724152 
	C485.653320,443.260620 485.647614,443.797089 485.641876,444.333557 
	C479.964844,445.232208 474.309357,446.693481 468.606293,446.911682 
	C456.955627,447.357483 445.278259,447.246063 433.614380,447.123779 
	C429.792084,447.083710 427.762726,448.361450 427.044403,452.223724 
	C425.858795,458.598358 424.253204,464.893829 423.000702,471.257294 
	C415.675598,508.472351 408.443115,545.705627 401.088623,582.914856 
	C398.429657,596.367798 397.316467,609.881653 398.377106,623.958923 
	C452.042419,632.164856 505.685486,638.898499 560.711792,641.845154 
z"/>
<path fill="#000000" opacity="1.000000" stroke="none" 
	d="
M100.282608,84.470558 
	C100.289436,84.167603 100.244888,84.238022 100.224319,84.246262 
	C100.597061,84.319405 100.990364,84.384300 101.383667,84.449203 
	C101.257233,84.700928 101.130798,84.952652 101.004364,85.204361 
	C100.761497,85.060745 100.518639,84.917130 100.282608,84.470558 
z"/>
<path fill="#000000" opacity="1.000000" stroke="none" 
	d="
M148.652985,47.303642 
	C148.564697,46.943134 148.718567,46.785503 148.880737,46.576607 
	C148.998154,46.754013 149.133102,46.965126 149.177200,47.193768 
	C149.193985,47.280834 149.002243,47.408134 148.652985,47.303642 
z"/>
<path fill="#000000" opacity="1.000000" stroke="none" 
	d="
M137.577789,54.655666 
	C137.209442,54.517834 137.238831,54.467136 137.223877,54.471748 
	C137.902084,54.418274 138.595245,54.360184 139.288422,54.302094 
	C139.297409,54.415291 139.306396,54.528484 139.315384,54.641682 
	C138.858978,54.692287 138.402557,54.742893 137.577789,54.655666 
z"/>
<path fill="#000000" opacity="1.000000" stroke="none" 
	d="
M124.675781,64.344086 
	C125.352608,63.633606 126.075607,62.933987 127.174538,62.151146 
	C127.110909,62.649963 126.671341,63.232006 125.688934,63.963860 
	C125.146095,64.113670 124.813805,64.331322 124.813805,64.331322 
	C124.813805,64.331322 124.721947,64.354935 124.675781,64.344086 
z"/>
<path fill="#000000" opacity="1.000000" stroke="none" 
	d="
M103.268997,81.514526 
	C103.301819,81.210037 103.303734,81.225906 103.289223,81.233070 
	C103.665604,81.315376 104.056488,81.390511 104.447380,81.465645 
	C104.303932,81.718925 104.202728,82.129501 104.005478,82.182487 
	C103.796646,82.238571 103.496452,81.954498 103.268997,81.514526 
z"/>
<path fill="#000000" opacity="1.000000" stroke="none" 
	d="
M76.294662,109.482445 
	C76.234596,109.204010 76.226692,109.229698 76.211121,109.234329 
	C76.553902,109.383255 76.912254,109.527550 77.270615,109.671844 
	C77.087502,109.883492 76.904396,110.095146 76.721283,110.306808 
	C76.599106,110.124832 76.476921,109.942856 76.294662,109.482445 
z"/>
<path fill="#000000" opacity="1.000000" stroke="none" 
	d="
M72.434708,114.393372 
	C72.424484,114.101387 72.433891,114.120102 72.423584,114.126762 
	C72.783264,114.238266 73.153259,114.343109 73.523247,114.447952 
	C73.236092,114.720589 72.954613,114.999901 72.653198,115.255737 
	C72.622375,115.281914 72.403160,115.179840 72.391685,115.115730 
	C72.367355,114.979805 72.422424,114.829666 72.434708,114.393372 
z"/>
<path fill="#000000" opacity="1.000000" stroke="none" 
	d="
M67.112953,120.770988 
	C67.151428,120.460899 67.140823,120.461472 67.125305,120.466934 
	C67.516548,120.617401 67.923294,120.762405 68.330040,120.907417 
	C67.911522,120.965309 67.492996,121.023193 67.112953,120.770988 
z"/>
<path fill="#000000" opacity="1.000000" stroke="none" 
	d="
M115.003433,71.997017 
	C115.172264,72.231010 115.348785,72.459831 115.525314,72.688652 
	C115.263977,72.588684 115.002640,72.488716 114.886749,72.183990 
	C115.032204,71.979240 115.011131,71.991852 115.003433,71.997017 
z"/>
<path fill="#000000" opacity="1.000000" stroke="none" 
	d="
M124.911110,64.539825 
	C124.813805,64.331322 125.146095,64.113670 125.327583,64.044052 
	C125.589279,64.109055 125.669487,64.243683 125.749695,64.378311 
	C125.502602,64.501648 125.255508,64.624992 124.911110,64.539825 
z"/>
<path fill="#000000" opacity="1.000000" stroke="none" 
	d="
M63.325832,126.686829 
	C63.350788,126.870712 63.239922,127.174126 63.034756,127.272980 
	C62.940456,127.068413 63.190006,126.806358 63.325832,126.686829 
z"/>
<path fill="#000000" opacity="1.000000" stroke="none" 
	d="
M1224.788208,137.877304 
	C1224.782715,138.187637 1224.565552,138.375305 1224.348267,138.562958 
	C1224.424316,138.293518 1224.500366,138.024078 1224.788208,137.877304 
z"/>
<path fill="#000000" opacity="1.000000" stroke="none" 
	d="
M133.008026,57.993843 
	C133.173386,58.225689 133.357239,58.443989 133.541092,58.662292 
	C133.280289,58.558571 133.019470,58.454849 132.912460,58.153824 
	C133.066254,57.956520 133.026535,57.980301 133.008026,57.993843 
z"/>
<path fill="#000000" opacity="1.000000" stroke="none" 
	d="
M1239.004883,162.006790 
	C1238.775757,162.177322 1238.556274,162.360748 1238.336670,162.544189 
	C1238.433594,162.280518 1238.530396,162.016830 1238.830078,161.901566 
	C1239.032837,162.049973 1239.014404,162.019669 1239.004883,162.006790 
z"/>
<path fill="#000000" opacity="1.000000" stroke="none" 
	d="
M38.974884,166.036362 
	C39.215652,166.058731 39.466103,166.065399 39.716560,166.072052 
	C39.549232,166.185760 39.381908,166.299469 39.109692,166.203217 
	C39.004799,165.993271 38.984570,166.020660 38.974884,166.036362 
z"/>
<path fill="#864760" opacity="1.000000" stroke="none" 
	d="
M460.918854,1189.042358 
	C449.937195,1173.746704 452.650726,1157.679321 468.028564,1147.254395 
	C509.389587,1119.215088 550.841492,1091.309814 592.238220,1063.322998 
	C595.367249,1061.207520 598.344910,1058.868286 601.817749,1056.321411 
	C592.299194,1048.625488 583.246765,1041.344482 574.236633,1034.011597 
	C563.381531,1025.177246 552.384521,1016.504761 541.791077,1007.365662 
	C534.851868,1001.379272 527.832520,997.044556 516.740479,1001.910461 
	C522.501160,990.442017 515.516235,986.091736 508.572754,981.509033 
	C505.258270,979.321533 502.177643,976.703003 499.289459,973.964905 
	C495.362366,970.241943 491.638672,970.002930 487.319641,973.313965 
	C478.395050,980.155884 468.832428,985.832458 457.616180,988.089844 
	C434.072510,992.828186 412.418030,986.958374 393.888336,973.009155 
	C361.939056,948.957520 342.492554,916.689026 337.675537,876.567078 
	C335.256683,856.420044 343.490082,845.035339 362.938995,839.401184 
	C381.736389,833.955688 400.619598,835.964539 419.394592,839.259399 
	C445.364136,843.816833 467.689911,855.729187 487.017731,873.606689 
	C509.782837,894.663635 515.742798,919.653259 504.582336,948.434753 
	C502.431519,953.981445 503.226471,956.889587 508.260254,959.460754 
	C510.902954,960.810608 513.164734,962.893616 515.643372,964.579651 
	C526.781921,972.156677 526.787720,972.148132 539.788635,971.803162 
	C540.329773,978.927673 544.254517,983.927551 550.187683,987.718567 
	C571.506470,1001.340210 592.767090,1015.053040 614.046265,1028.736694 
	C616.427856,1030.268188 618.791382,1031.828003 621.156738,1033.384644 
	C628.412170,1038.159180 630.801636,1038.160278 637.868042,1033.281860 
	C656.921936,1020.127991 675.915405,1006.885681 695.034790,993.827759 
	C706.995850,985.658752 719.093933,977.687195 731.224731,969.771362 
	C736.968811,966.023132 741.265381,961.670715 740.971252,954.139709 
	C740.803955,949.855591 743.479614,949.112732 746.418945,951.377686 
	C751.260254,955.108154 755.000061,953.517334 759.219788,950.258179 
	C764.208984,946.404907 769.628174,943.108337 775.194946,939.344604 
	C771.633972,929.102966 768.098572,918.936157 764.564148,908.768921 
	C764.017700,907.197144 763.443665,905.634094 762.936707,904.049622 
	C760.422119,896.189453 761.669739,892.002747 768.554321,887.288513 
	C778.034973,880.796631 787.714050,874.595276 797.266724,868.207458 
	C832.712097,844.505493 868.137573,820.773804 903.581482,797.069763 
	C906.069214,795.405945 908.646423,793.875916 911.625427,792.005371 
	C913.871094,794.691345 916.042725,797.288879 918.459229,800.179260 
	C878.464966,831.376282 838.825378,862.296692 798.830017,893.494568 
	C800.620911,896.031189 802.309631,898.423096 804.284790,901.220581 
	C845.395386,871.988403 886.316101,842.891296 927.480713,813.620728 
	C929.765747,816.405151 931.863464,818.961304 934.330872,821.967957 
	C894.234558,852.791016 854.265747,883.515991 813.929260,914.523682 
	C816.062805,917.380066 818.097839,920.104614 820.246216,922.980835 
	C861.008484,892.880432 901.442566,863.022400 942.146790,832.964783 
	C944.242920,835.676331 946.147156,838.139709 948.402527,841.057251 
	C909.216980,872.741699 870.159302,904.322815 830.835938,936.118774 
	C832.528259,938.444580 834.040955,940.523499 835.819946,942.968384 
	C876.260986,912.413696 916.360291,882.117126 956.848389,851.526917 
	C959.417847,854.916565 961.878723,858.162964 964.531982,861.663147 
	C949.860596,874.240906 935.465149,886.597412 921.053040,898.934448 
	C892.065674,923.748169 863.058289,948.538513 834.083923,973.367371 
	C826.269653,980.063599 825.062439,980.161194 816.322021,974.312866 
	C806.226196,967.557495 796.107056,960.836914 785.673340,953.884888 
	C780.122070,958.573303 774.455261,962.944397 769.349731,967.894531 
	C767.544006,969.645264 766.425171,972.743347 766.176453,975.339661 
	C765.471680,982.697693 765.724304,982.333557 758.697144,982.120911 
	C755.488403,982.023804 751.483093,982.896606 749.096191,984.858704 
	C720.265503,1008.558899 691.672913,1032.548706 662.994507,1056.434448 
	C662.362061,1056.961182 661.449158,1057.151245 660.112061,1057.744751 
	C680.796631,1071.154297 700.204163,1083.725098 719.600647,1096.312866 
	C758.440063,1121.518677 797.286133,1146.714233 836.101379,1171.957275 
	C847.161743,1179.150269 851.852600,1191.393921 848.417236,1203.589844 
	C843.182312,1222.174683 820.421631,1229.877319 805.412781,1217.953979 
	C750.231384,1174.116577 695.123291,1130.186890 639.977661,1086.304321 
	C637.915771,1084.663452 635.750732,1083.152344 633.437439,1081.435181 
	C618.280151,1094.127563 603.341858,1106.624390 588.416809,1119.137085 
	C559.687683,1143.222656 530.978088,1167.331299 502.236145,1191.401367 
	C488.870972,1202.594238 473.406311,1201.782959 460.918854,1189.042358 
M806.141602,875.975708 
	C796.473938,882.152222 786.802612,888.322998 777.140686,894.508362 
	C773.878418,896.596802 772.161560,899.490662 773.206726,903.399414 
	C780.417908,930.367737 795.056458,951.693054 820.310852,964.795959 
	C821.644287,965.487793 823.930176,965.671326 825.151306,964.985291 
	C827.999451,963.385437 830.468567,961.110840 833.402039,958.872375 
	C817.377441,937.479248 801.562195,916.365662 785.563354,895.006958 
	C793.129028,888.725342 800.404053,882.684937 808.186462,876.266602 
	C808.378235,875.894043 808.570007,875.521484 808.761780,875.148987 
	C808.115356,875.367859 807.468933,875.586792 806.141602,875.975708 
M484.812073,961.310547 
	C496.313202,948.295837 502.041809,929.211182 497.953491,916.703247 
	C497.220490,918.493408 496.635406,920.005859 495.987671,921.491028 
	C491.288239,932.266174 485.890289,942.446106 475.643219,949.257935 
	C470.100739,952.942444 465.148132,953.314392 459.605103,949.339783 
	C438.495789,934.203857 417.267059,919.234497 396.091827,904.190491 
	C380.225250,892.917908 364.372284,881.626282 347.849243,869.870667 
	C352.949371,894.967224 360.235382,918.289734 375.470032,938.390259 
	C387.601654,954.396729 402.342560,967.240845 421.886932,973.127014 
	C444.433411,979.917297 466.008362,979.360474 484.812073,961.310547 
M714.941650,1131.554077 
	C741.554749,1152.392456 768.140503,1173.265869 794.797058,1194.048584 
	C803.218811,1200.614502 809.257324,1199.606201 814.452454,1191.104736 
	C799.494690,1178.292114 623.843689,1056.466797 619.432617,1056.651245 
	C651.525330,1081.804199 682.963562,1106.444336 714.941650,1131.554077 
M590.838013,1088.329956 
	C597.922852,1082.796387 605.059021,1077.326416 612.051514,1071.678467 
	C613.544495,1070.472534 614.515320,1068.619995 615.726746,1067.065308 
	C613.445251,1067.061035 611.131042,1066.826538 608.895386,1067.144531 
	C607.684448,1067.316772 606.573059,1068.380493 605.475647,1069.128540 
	C599.425293,1073.252075 593.380249,1077.383667 587.356873,1081.546631 
	C555.871155,1103.307373 524.359131,1125.030273 492.932617,1146.876343 
	C484.014282,1153.075928 483.433960,1159.101318 490.717529,1166.507080 
	C523.893799,1140.607056 557.087341,1114.693726 590.838013,1088.329956 
M657.778564,1036.258667 
	C661.063171,1033.734131 664.347778,1031.209595 668.599182,1027.942017 
	C663.900635,1027.491699 649.163940,1036.885620 641.549744,1043.959106 
	C642.279907,1044.915161 643.016235,1045.879272 643.839722,1046.957642 
	C648.525757,1043.370483 652.874023,1040.041992 657.778564,1036.258667 
z"/>
<path fill="#FFFBDF" opacity="1.000000" stroke="none" 
	d="
M166.076141,1245.456421 
	C161.085464,1243.188965 154.044388,1245.042480 150.556931,1238.503174 
	C149.843506,1237.165527 145.708359,1237.951904 144.409210,1236.573120 
	C140.028336,1231.923706 132.117767,1232.529663 129.174576,1226.013306 
	C121.394463,1224.840942 116.146568,1219.215210 110.193314,1214.964844 
	C94.661385,1203.875732 80.273003,1191.444336 68.161415,1176.609985 
	C60.981571,1167.816162 54.168980,1158.722290 47.070919,1149.436279 
	C48.719543,1149.695068 51.318329,1149.727905 52.132660,1150.949951 
	C63.918278,1168.636230 78.406868,1183.800537 94.215805,1197.910034 
	C113.194946,1214.848999 134.799866,1227.649414 157.105194,1239.480835 
	C160.198288,1241.121704 163.067184,1243.185181 166.076141,1245.456421 
z"/>
<path fill="#FFFAE0" opacity="1.000000" stroke="none" 
	d="
M1165.739258,1217.053467 
	C1161.357788,1221.044556 1156.746460,1225.209839 1151.794434,1228.920288 
	C1148.583618,1231.325928 1144.991943,1233.309204 1141.366089,1235.056885 
	C1133.493286,1238.851929 1125.474609,1242.343262 1117.543823,1246.019531 
	C1112.283691,1248.457642 1107.206909,1251.356323 1101.803223,1253.402344 
	C1095.851318,1255.655884 1089.624390,1257.187378 1083.506836,1258.997803 
	C1079.985352,1260.040161 1076.443237,1261.012451 1072.476318,1262.077148 
	C1073.061401,1261.247314 1073.940063,1259.998779 1075.125977,1259.533813 
	C1078.506592,1258.208374 1081.982910,1257.100708 1085.473511,1256.086548 
	C1108.717651,1249.333130 1130.016602,1238.396484 1150.606567,1225.919678 
	C1155.517456,1222.943848 1160.444946,1219.995605 1165.739258,1217.053467 
z"/>
<path fill="#FFFBDF" opacity="1.000000" stroke="none" 
	d="
M29.951550,1117.868042 
	C27.711725,1112.791260 25.240160,1107.799561 23.328838,1102.602051 
	C22.358244,1099.962646 22.728024,1096.846802 21.868137,1094.144897 
	C21.253111,1092.212402 19.601437,1090.609863 19.311474,1088.207031 
	C19.727806,1088.691650 20.144138,1089.176392 21.200422,1090.406006 
	C20.653473,1087.885376 20.301563,1086.263550 19.907045,1084.342529 
	C20.796082,1085.204102 22.215633,1086.227783 22.586098,1087.546143 
	C28.034760,1106.936035 36.751450,1124.864258 46.801289,1142.202881 
	C47.792274,1143.912598 49.658306,1145.481079 46.185543,1146.929932 
	C40.923279,1137.990112 35.949135,1128.926392 31.140810,1119.333984 
	C30.854939,1118.492920 30.403246,1118.180420 29.951550,1117.868042 
z"/>
<path fill="#FFFAE0" opacity="1.000000" stroke="none" 
	d="
M1222.423584,1163.025879 
	C1219.500488,1167.219360 1216.451172,1171.626709 1212.862549,1175.539429 
	C1205.506226,1183.559937 1198.047363,1191.506348 1190.265259,1199.109253 
	C1185.496094,1203.768677 1180.133057,1207.841675 1174.869141,1211.963989 
	C1172.388306,1213.906860 1169.513062,1215.346191 1166.442993,1217.065674 
	C1169.373535,1214.081299 1172.750732,1211.120483 1175.968262,1207.994995 
	C1187.124512,1197.158203 1198.202759,1186.241211 1209.372314,1175.418335 
	C1210.935181,1173.903931 1212.842651,1172.745361 1214.840332,1171.233032 
	C1214.264893,1168.383179 1217.809448,1163.938721 1222.423584,1163.025879 
z"/>
<path fill="#FFFBDF" opacity="1.000000" stroke="none" 
	d="
M174.150177,1249.542725 
	C171.276779,1250.004150 168.334183,1250.559570 167.756378,1246.178955 
	C170.497025,1245.622803 173.645432,1244.947510 174.150177,1249.542725 
z"/>
<path fill="#FFFBDF" opacity="1.000000" stroke="none" 
	d="
M166.598206,1245.171631 
	C166.351807,1245.175903 166.305283,1245.215454 166.295151,1245.182373 
	C166.471558,1245.155273 166.658081,1245.161255 166.598206,1245.171631 
z"/>
<path fill="#000000" opacity="1.000000" stroke="none" 
	d="
M21.241213,206.999283 
	C21.149647,206.478775 21.343267,206.092056 21.536888,205.705338 
	C21.679523,205.955505 21.822157,206.205688 21.969891,206.573273 
	C21.825457,206.838150 21.675928,206.985611 21.241213,206.999283 
z"/>
<path fill="#FFEED3" opacity="1.000000" stroke="none" 
	d="
M29.995853,1118.147095 
	C30.403246,1118.180420 30.854939,1118.492920 31.119204,1118.926025 
	C30.634569,1118.839966 30.337362,1118.633057 29.995853,1118.147095 
z"/>
<path fill="#FFFFFF" opacity="1.000000" stroke="none" 
	d="
M560.236938,641.824097 
	C505.685486,638.898499 452.042419,632.164856 398.377106,623.958923 
	C397.316467,609.881653 398.429657,596.367798 401.088623,582.914856 
	C408.443115,545.705627 415.675598,508.472351 423.000702,471.257294 
	C424.253204,464.893829 425.858795,458.598358 427.044403,452.223724 
	C427.762726,448.361450 429.792084,447.083710 433.614380,447.123779 
	C445.278259,447.246063 456.955627,447.357483 468.606293,446.911682 
	C474.309357,446.693481 479.964844,445.232208 485.641876,444.333557 
	C485.647614,443.797089 485.653320,443.260620 485.659058,442.724152 
	C478.598175,441.163025 471.536682,439.604614 464.476532,438.040222 
	C446.140289,433.977295 427.404388,431.191620 409.544373,425.605591 
	C357.424194,409.304230 324.486511,355.080322 333.128723,301.705322 
	C340.426392,256.634583 376.536194,219.367310 422.859222,209.063477 
	C441.514526,204.913910 460.175995,204.810516 478.858124,208.836456 
	C484.507324,210.053848 485.138672,211.022903 483.647400,216.702194 
	C479.370880,232.989136 478.187012,249.477951 480.688416,266.297211 
	C483.144196,255.696167 485.309296,245.017822 488.104126,234.506943 
	C503.324432,177.266525 537.783691,135.957474 593.808228,116.434998 
	C655.086914,95.081619 711.229309,107.427292 760.109009,150.696777 
	C775.618408,164.426102 787.977783,180.678574 798.174011,198.596924 
	C801.043274,203.639343 804.856995,205.656113 810.601562,206.093811 
	C832.186096,207.738419 853.765076,209.676651 874.094971,218.086395 
	C914.229126,234.688507 938.849854,264.004059 945.334961,307.184143 
	C949.141357,332.528656 940.724121,355.120087 926.050293,375.608093 
	C905.844971,403.819366 877.565552,418.854156 844.306213,425.905151 
	C825.273743,429.940063 806.299194,434.248657 787.309387,438.482666 
	C785.504028,438.885223 783.776306,439.635803 782.125122,441.331604 
	C782.954285,441.610992 783.773315,442.098480 784.614014,442.139282 
	C803.572510,443.059387 822.558105,444.883789 841.464111,441.775421 
	C846.637207,440.924927 848.336060,442.890991 848.729370,447.674561 
	C850.011963,463.276917 851.549194,478.858154 852.904663,494.454773 
	C855.442810,523.658997 858.356445,552.840515 860.236633,582.087769 
	C861.131104,596.001892 860.142395,610.050537 859.604126,624.022766 
	C859.548645,625.463074 856.874023,627.792419 855.179504,628.029785 
	C833.092957,631.124023 811.005615,634.299194 788.836975,636.702698 
	C740.929871,641.896729 692.856812,644.655090 644.661194,644.156677 
	C616.673096,643.867310 588.694580,642.646729 560.236938,641.824097 
M632.479553,590.161072 
	C635.308167,584.605896 639.026672,579.320862 640.810059,573.448303 
	C648.191711,549.140320 648.385986,524.303833 644.227417,499.447693 
	C643.123535,492.849274 640.773804,486.295685 637.971252,480.192108 
	C635.284851,474.341644 630.796997,474.481171 627.747742,480.241852 
	C625.363281,484.746674 623.287048,489.556305 621.993042,494.472443 
	C616.136597,516.722961 614.663635,539.378113 617.322021,562.200073 
	C618.239502,570.076477 620.138916,577.884583 622.170959,585.570312 
	C623.766663,591.605713 627.012573,592.968201 632.479553,590.161072 
M525.375488,582.802673 
	C533.920959,565.707947 537.114807,547.297241 538.750061,528.498718 
	C540.009888,514.015991 540.274902,499.565338 535.771912,485.539154 
	C534.966736,483.031036 532.537048,479.593170 530.502258,479.329834 
	C528.369324,479.053802 524.933777,481.560059 523.611450,483.772827 
	C520.569031,488.864197 518.100647,494.381500 516.040344,499.962555 
	C506.875824,524.787659 505.897552,550.653015 507.082245,576.689514 
	C507.265320,580.713318 508.836304,584.814514 510.433624,588.597778 
	C512.414612,593.289673 516.346375,593.867798 519.930725,590.198242 
	C521.883789,588.198853 523.337280,585.711548 525.375488,582.802673 
M730.061340,564.361694 
	C732.720581,572.018311 735.024536,579.823914 738.153198,587.283752 
	C740.590637,593.095581 745.410400,593.888611 748.578918,588.655823 
	C751.730042,583.451721 753.558838,577.227173 754.942017,571.214233 
	C758.735291,554.724304 757.021057,538.040161 754.512207,521.647522 
	C752.823608,510.614746 749.303040,499.779785 745.692078,489.165894 
	C744.314087,485.115479 740.398499,481.928345 736.828186,477.295105 
	C733.790344,482.182251 730.429077,485.494049 729.530640,489.375854 
	C723.816284,514.067444 724.914612,538.830566 730.061340,564.361694 
z"/>
<path fill="#FEFDFD" opacity="1.000000" stroke="none" 
	d="
M484.565704,961.563843 
	C466.008362,979.360474 444.433411,979.917297 421.886932,973.127014 
	C402.342560,967.240845 387.601654,954.396729 375.470032,938.390259 
	C360.235382,918.289734 352.949371,894.967224 347.849243,869.870667 
	C364.372284,881.626282 380.225250,892.917908 396.091827,904.190491 
	C417.267059,919.234497 438.495789,934.203857 459.605103,949.339783 
	C465.148132,953.314392 470.100739,952.942444 475.643219,949.257935 
	C485.890289,942.446106 491.288239,932.266174 495.987671,921.491028 
	C496.635406,920.005859 497.220490,918.493408 497.953491,916.703247 
	C502.041809,929.211182 496.313202,948.295837 484.565704,961.563843 
z"/>
<path fill="#FCFBFB" opacity="1.000000" stroke="none" 
	d="
M714.671753,1131.319214 
	C682.963562,1106.444336 651.525330,1081.804199 619.432617,1056.651245 
	C623.843689,1056.466797 799.494690,1178.292114 814.452454,1191.104736 
	C809.257324,1199.606201 803.218811,1200.614502 794.797058,1194.048584 
	C768.140503,1173.265869 741.554749,1152.392456 714.671753,1131.319214 
z"/>
<path fill="#FDFCFD" opacity="1.000000" stroke="none" 
	d="
M807.679138,876.644531 
	C800.404053,882.684937 793.129028,888.725342 785.563354,895.006958 
	C801.562195,916.365662 817.377441,937.479248 833.402039,958.872375 
	C830.468567,961.110840 827.999451,963.385437 825.151306,964.985291 
	C823.930176,965.671326 821.644287,965.487793 820.310852,964.795959 
	C795.056458,951.693054 780.417908,930.367737 773.206726,903.399414 
	C772.161560,899.490662 773.878418,896.596802 777.140686,894.508362 
	C786.802612,888.322998 796.473938,882.152222 806.688904,876.107910 
	C807.383911,876.374939 807.531555,876.509766 807.679138,876.644531 
z"/>
<path fill="#FDFBFB" opacity="1.000000" stroke="none" 
	d="
M590.559448,1088.555176 
	C557.087341,1114.693726 523.893799,1140.607056 490.717529,1166.507080 
	C483.433960,1159.101318 484.014282,1153.075928 492.932617,1146.876343 
	C524.359131,1125.030273 555.871155,1103.307373 587.356873,1081.546631 
	C593.380249,1077.383667 599.425293,1073.252075 605.475647,1069.128540 
	C606.573059,1068.380493 607.684448,1067.316772 608.895386,1067.144531 
	C611.131042,1066.826538 613.445251,1067.061035 615.726746,1067.065430 
	C614.515320,1068.619995 613.544495,1070.472534 612.051514,1071.678467 
	C605.059021,1077.326416 597.922852,1082.796387 590.559448,1088.555176 
z"/>
<path fill="#F7F2F3" opacity="1.000000" stroke="none" 
	d="
M657.500427,1036.486084 
	C652.874023,1040.041992 648.525757,1043.370483 643.839722,1046.957642 
	C643.016235,1045.879272 642.279907,1044.915161 641.549744,1043.959106 
	C649.163940,1036.885620 663.900635,1027.491699 668.599182,1027.942017 
	C664.347778,1031.209595 661.063171,1033.734131 657.500427,1036.486084 
z"/>
<path fill="#FDFCFD" opacity="1.000000" stroke="none" 
	d="
M807.029358,876.022888 
	C807.468933,875.586792 808.115356,875.367859 808.761780,875.148926 
	C808.570007,875.521484 808.378235,875.894043 807.932800,876.455566 
	C807.531555,876.509766 807.383911,876.374939 807.029358,876.022888 
z"/>
<path fill="#734355" opacity="1.000000" stroke="none" 
	d="
M632.206177,590.419067 
	C627.012573,592.968201 623.766663,591.605713 622.170959,585.570312 
	C620.138916,577.884583 618.239502,570.076477 617.322021,562.200073 
	C614.663635,539.378113 616.136597,516.722961 621.993042,494.472443 
	C623.287048,489.556305 625.363281,484.746674 627.747742,480.241852 
	C630.796997,474.481171 635.284851,474.341644 637.971252,480.192108 
	C640.773804,486.295685 643.123535,492.849274 644.227417,499.447693 
	C648.385986,524.303833 648.191711,549.140320 640.810059,573.448303 
	C639.026672,579.320862 635.308167,584.605896 632.206177,590.419067 
z"/>
<path fill="#724254" opacity="1.000000" stroke="none" 
	d="
M525.195740,583.123474 
	C523.337280,585.711548 521.883789,588.198853 519.930725,590.198242 
	C516.346375,593.867798 512.414612,593.289673 510.433624,588.597778 
	C508.836304,584.814514 507.265320,580.713318 507.082245,576.689514 
	C505.897552,550.653015 506.875824,524.787659 516.040344,499.962555 
	C518.100647,494.381500 520.569031,488.864197 523.611450,483.772827 
	C524.933777,481.560059 528.369324,479.053802 530.502258,479.329834 
	C532.537048,479.593170 534.966736,483.031036 535.771912,485.539154 
	C540.274902,499.565338 540.009888,514.015991 538.750061,528.498718 
	C537.114807,547.297241 533.920959,565.707947 525.195740,583.123474 
z"/>
<path fill="#724254" opacity="1.000000" stroke="none" 
	d="
M730.024475,563.938965 
	C724.914612,538.830566 723.816284,514.067444 729.530640,489.375854 
	C730.429077,485.494049 733.790344,482.182251 736.828186,477.295105 
	C740.398499,481.928345 744.314087,485.115479 745.692078,489.165894 
	C749.303040,499.779785 752.823608,510.614746 754.512207,521.647522 
	C757.021057,538.040161 758.735291,554.724304 754.942017,571.214233 
	C753.558838,577.227173 751.730042,583.451721 748.578918,588.655823 
	C745.410400,593.888611 740.590637,593.095581 738.153198,587.283752 
	C735.024536,579.823914 732.720581,572.018311 730.024475,563.938965 
z"/>
</svg>